<svg width="60" height="36" viewBox="0 0 60 36" fill="none" xmlns="http://www.w3.org/2000/svg">
<g clip-path="url(#clip0_1686_137)">
<path d="M39.9228 24.1074C35.834 23.9082 36.0912 19.7928 36.0912 19.7928V13.8767H36.036L36.0912 13.8479V13.8715C37.0772 13.818 38.0655 13.818 39.0515 13.8715C41.054 13.9553 41.1983 14.1598 41.1983 14.1598C44.1272 14.5949 44.5943 17.6067 44.5943 17.6067V18.9409C44.8568 23.8977 39.9517 24.1283 39.9228 24.0995V24.1074ZM33.7659 11.7352H26.2862C26.2862 11.7352 27.273 5.5071 18.7147 5.5071C18.7436 5.53594 15.5234 5.53594 15.5234 5.53594C15.5234 5.53594 15.2898 2.05494 21.7617 2.05494H37.0806C37.0806 2.05494 42.8832 1.62506 44.101 5.53594C44.1272 5.56477 40.7049 5.53594 40.7049 5.53594C40.7049 5.53594 33.8866 5.33935 33.7659 11.7352ZM15.3476 7.68011H19.2659C19.2659 7.68011 24.0555 7.24498 23.9059 11.6775H21.4993C21.4993 11.6775 15.261 12.0261 15.3476 7.68011ZM24.953 24.2542C24.953 24.2542 26.5487 22.7469 26.2652 17.3026C26.2652 17.3289 13.143 17.3026 13.143 17.3026V19.2135C13.143 19.2135 13.0827 22.6211 15.2426 24.2542C15.2426 24.283 7.75505 24.2542 7.75505 24.2542C7.75505 24.2542 5.55052 24.2542 4.65034 23.7299C4.65034 23.7299 2.41956 23.1506 2.39069 20.0602C2.36183 16.9698 2.39069 12.4586 2.39069 12.4586C2.39069 12.4586 2.53504 9.99728 3.14391 9.33148C3.43522 8.98286 3.86826 8.0864 5.55052 7.87932C5.55052 7.87932 6.07541 7.68011 8.56863 7.68011H12.8806C12.8806 7.68011 12.8543 11.0877 15.0589 12.4324C15.0851 12.4324 17.1768 13.7928 21.704 13.7928H33.6845V19.2974C33.6582 21.0493 34.1414 22.7711 35.0755 24.2542H24.953ZM20.7145 24.0812C20.7145 24.0812 15.6573 23.8793 15.6573 19.3865H23.8691C23.8691 19.3865 24.2733 24.1388 20.7041 24.0812H20.7145ZM59.9605 20.4874C59.9605 20.4874 57.5985 20.456 57.6405 20.4874C57.6667 24.6814 52.6776 24.2096 52.6776 24.2096H45.4184C47.7804 21.7325 46.9012 17.0798 46.9012 17.0405C46.6834 13.4337 41.8492 12.2568 41.8492 12.3013C39.4163 11.7352 36.1069 11.6906 36.1069 11.6906C36.1935 7.43633 40.8939 7.69845 40.8939 7.69845C40.8939 7.69845 48.3342 7.61195 53.1684 7.69845C58.0026 7.78496 57.6929 11.4363 57.6929 11.4363C57.6929 11.4363 59.9972 11.4809 59.9972 11.4363C60.0418 5.52807 53.1212 5.57001 53.1212 5.57001C53.1212 5.57001 46.5942 5.61195 46.5942 5.57001C45.6809 -0.039423 38.3692 0.00513785 38.3692 0.00513785H20.355C13.8201 0.096881 12.9698 5.53594 12.9698 5.53594H7.45849C-0.351847 5.47827 0.00245131 11.9973 0.00245131 11.9973C0.00245131 11.9973 0.0286957 13.1244 0.00245131 20.0235C-0.0237931 26.9226 7.90465 26.3983 7.90465 26.3983H52.3706C60.8974 26.3983 59.9815 20.4874 59.9815 20.4874" fill="#FBFBFB"/>
<path d="M34.6664 34.2279C34.6874 34.0444 34.711 33.8583 34.7268 33.6749C34.7688 33.2397 34.8081 32.802 34.8475 32.3642C34.8711 32.1021 34.8895 31.84 34.9131 31.591L35.0312 30.2961C35.0548 30.0523 35.0706 29.8085 35.1021 29.5648C35.1078 29.5425 35.1189 29.522 35.1345 29.505C35.15 29.4881 35.1696 29.4753 35.1913 29.4678C35.7162 29.4678 36.2411 29.4678 36.7948 29.4678C36.7948 29.5621 36.7765 29.6434 36.7634 29.7299C36.6794 30.2541 36.5954 30.802 36.5009 31.3393C36.4012 31.9632 36.3023 32.5879 36.2043 33.2135C36.1072 33.819 36.0128 34.4219 35.9157 35.0274C35.8684 35.3184 35.8238 35.6093 35.7713 35.8977C35.7624 35.9219 35.7477 35.9437 35.7285 35.961C35.7093 35.9784 35.6862 35.9908 35.6611 35.9973C34.9761 35.9973 34.2911 35.9973 33.5773 35.9973C33.4329 34.5136 33.2886 33.0379 33.1443 31.5595H33.0944C33.0728 31.629 33.0561 31.7 33.0445 31.7718C33.0078 32.1257 32.9789 32.4769 32.9448 32.8203C32.8976 33.3061 32.8486 33.7919 32.7978 34.2777C32.7637 34.6185 32.7348 34.9619 32.7007 35.3026C32.6797 35.5018 32.664 35.7011 32.6351 35.8977C32.6271 35.9196 32.6138 35.9392 32.5964 35.9547C32.579 35.9703 32.5581 35.9813 32.5354 35.9868C31.874 35.9868 31.2127 35.9868 30.5513 35.9868C30.5282 35.9813 30.5069 35.9699 30.4895 35.9539C30.472 35.9378 30.459 35.9176 30.4516 35.895C30.3728 35.4599 30.3046 35.0222 30.2337 34.5844L29.9713 32.9619C29.8742 32.3406 29.7745 31.722 29.6774 31.1008C29.6013 30.6185 29.5225 30.1388 29.4464 29.6565C29.4464 29.5988 29.4464 29.5385 29.4307 29.473C29.4735 29.4708 29.5164 29.4708 29.5593 29.473C30.0369 29.473 30.5119 29.473 30.9896 29.473C31.0946 29.473 31.1261 29.5018 31.1339 29.6067C31.1864 30.2437 31.252 30.878 31.3098 31.5123C31.3465 31.916 31.3728 32.3197 31.4069 32.7207C31.4489 33.2188 31.4926 33.715 31.5381 34.2096C31.5381 34.2096 31.5381 34.2253 31.5722 34.2594C31.59 34.2181 31.6032 34.1751 31.6116 34.1309C31.6956 33.362 31.7769 32.594 31.8557 31.8269C31.9108 31.2869 31.9633 30.7443 32.0157 30.2043C32.0367 29.992 32.0525 29.7771 32.084 29.5648C32.0919 29.5426 32.1056 29.523 32.1235 29.5078C32.1415 29.4926 32.1632 29.4824 32.1863 29.4783C32.7926 29.4783 33.3962 29.4783 33.9998 29.4783C34.0917 29.4783 34.1153 29.5202 34.1232 29.591C34.152 29.84 34.1783 30.0864 34.2045 30.3354C34.2518 30.7889 34.3016 31.245 34.3489 31.7011C34.3856 32.034 34.4145 32.3669 34.4486 32.6971C34.5028 33.2214 34.5571 33.736 34.6113 34.241L34.6664 34.2279Z" fill="#FBFBFB"/>
<path d="M12.1357 35.9921V35.8243C12.1357 33.764 12.1357 31.7011 12.1357 29.6382C12.1357 29.5019 12.1699 29.46 12.3142 29.46C12.9231 29.46 13.5354 29.46 14.1513 29.46C14.2747 29.46 14.314 29.5019 14.3403 29.6146C14.6657 31.0301 14.9938 32.4438 15.3244 33.8558C15.3401 33.8954 15.3586 33.934 15.3796 33.9711C15.432 33.7562 15.4793 33.5753 15.5213 33.3971C15.81 32.1467 16.1013 30.899 16.3873 29.6487C16.4188 29.5124 16.4634 29.4547 16.6235 29.4574C17.214 29.4574 17.8019 29.4574 18.3898 29.4574H18.5682V35.9816H16.9358V31.9266H16.8781C16.5982 33.2809 16.3174 34.6387 16.0357 36C15.6158 36 15.2011 36 14.7891 36C14.7497 36 14.6867 35.9266 14.6762 35.8768C14.4951 35.0196 14.3193 34.1599 14.1513 33.3001C14.0673 32.8886 13.986 32.4796 13.8889 32.0681C13.8773 32.0173 13.8485 31.9719 13.8075 31.9397V32.11C13.8075 33.3473 13.8075 34.5845 13.8075 35.8217C13.8075 35.9764 13.7603 36.0131 13.6081 36.0104C13.1252 35.9868 12.6449 35.9921 12.1357 35.9921Z" fill="#FBFBFB"/>
<path d="M55.2705 29.4548H55.5749C56.3754 29.4548 57.1758 29.4548 57.9737 29.4548C58.2013 29.4649 58.4245 29.5211 58.6298 29.62C58.7765 29.698 58.897 29.8173 58.9763 29.9632C59.0557 30.1091 59.0903 30.275 59.0759 30.4404C59.0759 31.952 59.0759 33.4636 59.0759 34.9751C59.0803 35.1104 59.0562 35.245 59.0053 35.3704C58.9544 35.4958 58.8778 35.6092 58.7804 35.7033C58.683 35.7973 58.567 35.87 58.4398 35.9166C58.3126 35.9632 58.1771 35.9827 58.0419 35.9738H55.4017H55.2705V29.4548ZM56.9003 30.1809V35.0669C56.8964 35.107 56.8964 35.1474 56.9003 35.1875C56.9033 35.2007 56.9091 35.2131 56.9172 35.2239C56.9254 35.2348 56.9357 35.2438 56.9475 35.2504C56.9975 35.274 57.0527 35.2845 57.1079 35.2809C57.163 35.2773 57.2164 35.2597 57.2629 35.2298C57.3094 35.1999 57.3474 35.1587 57.3735 35.11C57.3997 35.0613 57.4129 35.0068 57.4121 34.9516C57.4121 33.461 57.4121 31.9703 57.4121 30.4797C57.4121 30.2831 57.3071 30.1888 57.1076 30.1809H56.9003Z" fill="#FBFBFB"/>
<path d="M47.6761 33.4601C47.9385 34.3041 48.201 35.1429 48.4818 35.9922C47.9333 35.9922 47.4084 35.9922 46.8809 35.9922C46.7706 35.9922 46.7575 35.9267 46.7391 35.8533C46.5738 35.1377 46.4111 34.4247 46.2457 33.7091C46.2405 33.6798 46.2308 33.6515 46.2169 33.6252C46.1964 33.6055 46.1692 33.5943 46.1408 33.5938C46.1276 33.5938 46.1066 33.6279 46.104 33.6462C46.1001 33.6863 46.1001 33.7267 46.104 33.7668V35.9791C46.0437 35.9791 45.999 35.9791 45.9544 35.9791C45.5056 35.9791 45.0542 35.9791 44.6028 35.9791C44.4769 35.9791 44.4375 35.9424 44.4375 35.8192C44.4375 35.1324 44.4375 34.4483 44.4375 33.7615V29.6645C44.4375 29.4653 44.4375 29.4653 44.6343 29.4653C45.4742 29.4653 46.314 29.4653 47.1538 29.4653C47.3328 29.4674 47.5102 29.4993 47.6787 29.5597C47.8414 29.6065 47.9847 29.7044 48.0873 29.839C48.1899 29.9736 48.2463 30.1376 48.2482 30.3067C48.2771 31.025 48.2744 31.7458 48.2823 32.4666C48.2902 32.5608 48.2902 32.6555 48.2823 32.7497C48.2705 32.9173 48.2052 33.0766 48.0961 33.2045C47.987 33.3323 47.8398 33.4219 47.6761 33.4601ZM46.1014 32.8415C46.4767 32.9044 46.6079 32.7995 46.6079 32.4431V30.5846C46.6079 30.2465 46.4531 30.1337 46.1014 30.215V32.8415Z" fill="#FBFBFB"/>
<path d="M42.427 32.7339C42.427 33.4914 42.427 34.2463 42.427 35.0012C42.4337 35.1349 42.4119 35.2685 42.363 35.3931C42.3142 35.5177 42.2394 35.6306 42.1437 35.7242C42.0479 35.8179 41.9334 35.8901 41.8076 35.9363C41.6818 35.9825 41.5477 36.0015 41.414 35.992C40.8471 35.992 40.2776 35.992 39.7107 35.992C38.9418 35.992 38.6216 35.5753 38.6163 34.9436C38.598 33.4626 38.5953 31.9789 38.6163 30.4875C38.6163 29.7902 38.9864 29.4861 39.6845 29.4521C40.2487 29.4259 40.813 29.4311 41.3746 29.4521C42.0097 29.4757 42.4375 29.7902 42.4244 30.5006C42.427 31.2529 42.427 31.9947 42.427 32.7339ZM40.275 32.7339V35.0012C40.275 35.2031 40.3459 35.2765 40.5374 35.2633C40.729 35.2502 40.7999 35.1795 40.7999 34.9855V30.4848C40.7999 30.2856 40.7133 30.1939 40.5374 30.1939C40.3616 30.1939 40.2881 30.2725 40.2881 30.477L40.275 32.7339Z" fill="#FBFBFB"/>
<path d="M6.86826 29.4548H7.01786C7.78157 29.4548 8.54528 29.4548 9.30899 29.4548C9.43759 29.4548 9.47958 29.5046 9.49533 29.6121C9.54782 30.0263 9.60031 30.443 9.65542 30.8572C9.71841 31.3605 9.78664 31.8637 9.85225 32.3696C9.90999 32.8021 9.96511 33.2373 10.0228 33.6803C10.0806 34.1232 10.1357 34.54 10.1934 34.9699C10.238 35.3028 10.28 35.6383 10.3247 35.9843C10.2818 35.9865 10.2389 35.9865 10.1961 35.9843C9.74465 35.9843 9.29325 35.9843 8.84184 35.9843C8.73162 35.9843 8.6975 35.9529 8.68963 35.8428C8.65813 35.3552 8.61089 34.8677 8.57153 34.3801C8.57153 34.3015 8.53478 34.2622 8.44818 34.2648C8.23297 34.2648 8.01777 34.2648 7.78419 34.2648L7.62935 35.9738H6.0127C6.29963 33.8087 6.58482 31.6357 6.86826 29.4548ZM8.47442 33.5309C8.47442 33.4208 8.47442 33.3238 8.47442 33.232C8.42718 32.6921 8.37207 32.1521 8.32745 31.6121C8.29071 31.2006 8.26447 30.789 8.22773 30.3775C8.22773 30.3382 8.19098 30.3015 8.16999 30.2622H8.12275L7.84193 33.5204L8.47442 33.5309Z" fill="#FBFBFB"/>
<path d="M2.53558 31.5361C2.53558 31.177 2.53558 30.8231 2.53558 30.4692C2.53696 30.4348 2.53154 30.4005 2.51962 30.3681C2.50771 30.3358 2.48953 30.3061 2.46614 30.2808C2.44274 30.2555 2.41459 30.235 2.38327 30.2206C2.35196 30.2062 2.3181 30.198 2.28364 30.1966C2.24917 30.1953 2.21477 30.2007 2.18241 30.2126C2.15004 30.2245 2.12033 30.2426 2.09499 30.266C2.06964 30.2894 2.04915 30.3175 2.03469 30.3488C2.02023 30.38 2.01208 30.4138 2.0107 30.4483V34.983C2.0107 35.1979 2.07893 35.2713 2.27314 35.2687C2.46735 35.2661 2.53558 35.1848 2.53558 34.9751V33.5597C2.52436 33.5496 2.51203 33.5408 2.49884 33.5335C2.28889 33.5125 2.28889 33.5125 2.28889 33.2975C2.28889 33.1455 2.28889 32.9961 2.28889 32.8467C2.29331 32.8341 2.29857 32.8219 2.30463 32.81H4.18636C4.18636 32.8624 4.18636 32.9148 4.18636 32.9673C4.18636 33.5675 4.18636 34.1678 4.18636 34.7707C4.18679 34.9302 4.17007 35.0892 4.13649 35.2451C4.09215 35.46 3.97339 35.6525 3.80108 35.7886C3.62877 35.9248 3.41394 35.9959 3.19432 35.9896C2.57495 35.9896 1.95296 36.0079 1.33359 35.9896C1.21256 35.9959 1.09147 35.9781 0.977394 35.9372C0.863314 35.8964 0.758518 35.8332 0.669116 35.7515C0.579713 35.6698 0.507493 35.5711 0.456662 35.4612C0.40583 35.3513 0.377405 35.2324 0.373044 35.1114C0.359922 34.928 0.3468 34.7418 0.3468 34.5584C0.3468 33.2661 0.3468 31.9764 0.3468 30.6842C0.344839 30.4995 0.366894 30.3154 0.412411 30.1363C0.454183 29.9613 0.552256 29.8047 0.691611 29.6906C0.830967 29.5765 1.00392 29.5112 1.184 29.5046C1.72988 29.4653 2.27839 29.4679 2.82427 29.4705C3.06295 29.4707 3.30078 29.4988 3.53287 29.5544C3.7077 29.5962 3.86366 29.6949 3.97624 29.8348C4.08883 29.9748 4.15166 30.1482 4.15487 30.3277C4.18636 30.6894 4.17586 31.0564 4.18636 31.4207C4.18636 31.5151 4.16012 31.5518 4.05514 31.5518C3.58011 31.5518 3.10509 31.5518 2.62744 31.5518C2.59659 31.548 2.56594 31.5427 2.53558 31.5361Z" fill="#FBFBFB"/>
<path d="M24.0111 35.9921H20.7568C20.6309 35.9921 20.5889 35.9633 20.5889 35.8349C20.5889 33.7641 20.5889 31.6907 20.5889 29.6199C20.5889 29.5282 20.5889 29.4574 20.7201 29.46H23.8379C23.8668 29.46 23.8983 29.46 23.9455 29.46V30.0891C23.9455 30.1966 23.8642 30.1756 23.8038 30.1756H22.2711V32.1756C22.3184 32.1756 22.3735 32.1756 22.426 32.1756C22.8826 32.1756 23.3367 32.1756 23.7933 32.1756C23.9114 32.1756 23.9587 32.2018 23.9508 32.325C23.9508 32.5085 23.9508 32.6946 23.9508 32.9017H22.2685V35.2477H22.4548C22.922 35.2477 23.3865 35.2477 23.8537 35.2477C23.9823 35.2477 24.0216 35.287 24.0164 35.4102C24.0033 35.6121 24.0111 35.7903 24.0111 35.9921Z" fill="#FBFBFB"/>
<path d="M50.3213 29.4705H51.9458V35.2608C52.0167 35.2608 52.0718 35.2608 52.1269 35.2608C52.5153 35.2608 52.9142 35.2608 53.2922 35.2608C53.4234 35.2608 53.4627 35.3001 53.4549 35.4233C53.447 35.5465 53.4549 35.7221 53.4549 35.8741C53.4549 35.9449 53.4391 35.9868 53.3525 35.9868H50.3213V29.4705Z" fill="#FBFBFB"/>
</g>
<defs>
<clipPath id="clip0_1686_137">
<rect width="60" height="36" fill="white"/>
</clipPath>
</defs>
</svg>
